<?xml version="1.0" encoding="UTF-8" standalone="no"?>
<!DOCTYPE svg PUBLIC "-//W3C//DTD SVG 1.1//EN"
 "http://www.w3.org/Graphics/SVG/1.1/DTD/svg11.dtd">
<!-- Generated by graphviz version 2.47.0 (20210316.0004)
 -->
<!-- Title: dependencies Pages: 1 -->
<svg width="1091pt" height="287pt"
 viewBox="0.00 0.00 1091.00 287.00" xmlns="http://www.w3.org/2000/svg" xmlns:xlink="http://www.w3.org/1999/xlink">
<g id="graph0" class="graph" transform="scale(1 1) rotate(0) translate(4 283)">
<title>dependencies</title>
<polygon fill="white" stroke="transparent" points="-4,4 -4,-283 1087,-283 1087,4 -4,4"/>
<text text-anchor="start" x="520.51" y="-42.4" font-family="Times-12" font-weight="bold" font-size="14.00">Legend</text>
<polygon fill="#ffffb3" stroke="transparent" points="307.5,-10 307.5,-30 327.5,-30 327.5,-10 307.5,-10"/>
<text text-anchor="start" x="331.13" y="-15.4" font-family="Times-12" font-size="14.00"> &#160;Declarations</text>
<polygon fill="#8dd3c7" stroke="transparent" points="420.5,-10 420.5,-30 440.5,-30 440.5,-10 420.5,-10"/>
<text text-anchor="start" x="444.23" y="-15.4" font-family="Times-12" font-size="14.00"> &#160;Module</text>
<polygon fill="#80b1d3" stroke="transparent" points="506.5,-10 506.5,-30 526.5,-30 526.5,-10 506.5,-10"/>
<text text-anchor="start" x="530.28" y="-15.4" font-family="Times-12" font-size="14.00"> &#160;Bootstrap</text>
<polygon fill="#fdb462" stroke="transparent" points="603.5,-10 603.5,-30 623.5,-30 623.5,-10 603.5,-10"/>
<text text-anchor="start" x="627.17" y="-15.4" font-family="Times-12" font-size="14.00"> &#160;Providers</text>
<polygon fill="#fb8072" stroke="transparent" points="699.5,-10 699.5,-30 719.5,-30 719.5,-10 699.5,-10"/>
<text text-anchor="start" x="723.23" y="-15.4" font-family="Times-12" font-size="14.00"> &#160;Exports</text>
<g id="clust1" class="cluster">
<title>cluster_AppModule</title>
<polygon fill="none" stroke="black" stroke-dasharray="1,5" points="168,-70 168,-271 535,-271 535,-70 168,-70"/>
</g>
<g id="clust3" class="cluster">
<title>cluster_AppModule_imports</title>
<polygon fill="none" stroke="black" points="314,-78 314,-206 527,-206 527,-78 314,-78"/>
</g>
<g id="clust6" class="cluster">
<title>cluster_AppModule_providers</title>
<polygon fill="none" stroke="black" points="176,-154 176,-206 306,-206 306,-154 176,-154"/>
</g>
<g id="clust7" class="cluster">
<title>cluster_AuthModule</title>
<polygon fill="none" stroke="black" stroke-dasharray="1,5" points="543,-146 543,-214 807,-214 807,-146 543,-146"/>
</g>
<g id="clust10" class="cluster">
<title>cluster_AuthModule_exports</title>
<polygon fill="none" stroke="black" points="693,-154 693,-206 799,-206 799,-154 693,-154"/>
</g>
<g id="clust12" class="cluster">
<title>cluster_AuthModule_providers</title>
<polygon fill="none" stroke="black" points="551,-154 551,-206 685,-206 685,-154 551,-154"/>
</g>
<g id="clust13" class="cluster">
<title>cluster_PostsModule</title>
<polygon fill="none" stroke="black" stroke-dasharray="1,5" points="8,-70 8,-138 160,-138 160,-70 8,-70"/>
</g>
<g id="clust18" class="cluster">
<title>cluster_PostsModule_providers</title>
<polygon fill="none" stroke="black" points="16,-78 16,-130 152,-130 152,-78 16,-78"/>
</g>
<g id="clust19" class="cluster">
<title>cluster_UsersModule</title>
<polygon fill="none" stroke="black" stroke-dasharray="1,5" points="815,-146 815,-214 1075,-214 1075,-146 815,-146"/>
</g>
<g id="clust22" class="cluster">
<title>cluster_UsersModule_exports</title>
<polygon fill="none" stroke="black" points="963,-154 963,-206 1067,-206 1067,-154 963,-154"/>
</g>
<g id="clust24" class="cluster">
<title>cluster_UsersModule_providers</title>
<polygon fill="none" stroke="black" points="823,-154 823,-206 955,-206 955,-154 823,-154"/>
</g>
<!-- AuthModule -->
<g id="node1" class="node">
<title>AuthModule</title>
<polygon fill="#8dd3c7" stroke="black" points="409.55,-122 406.55,-126 385.55,-126 382.55,-122 322.45,-122 322.45,-86 409.55,-86 409.55,-122"/>
<text text-anchor="middle" x="366" y="-99.8" font-family="Times,serif" font-size="14.00">AuthModule</text>
</g>
<!-- AppModule -->
<g id="node4" class="node">
<title>AppModule</title>
<polygon fill="#8dd3c7" stroke="black" points="440.66,-263 437.66,-267 416.66,-267 413.66,-263 357.34,-263 357.34,-227 440.66,-227 440.66,-263"/>
<text text-anchor="middle" x="399" y="-240.8" font-family="Times,serif" font-size="14.00">AppModule</text>
</g>
<!-- AuthModule&#45;&gt;AppModule -->
<g id="edge1" class="edge">
<title>AuthModule&#45;&gt;AppModule</title>
<path fill="none" stroke="black" d="M409.74,-110C414.01,-110 416.8,-110 416.8,-110 416.8,-110 416.8,-216.79 416.8,-216.79"/>
<polygon fill="black" stroke="black" points="413.3,-216.79 416.8,-226.79 420.3,-216.79 413.3,-216.79"/>
</g>
<!-- AuthService  -->
<g id="node6" class="node">
<title>AuthService </title>
<polygon fill="#fb8072" stroke="black" points="790.98,-198 701.02,-198 701.02,-162 790.98,-162 790.98,-198"/>
<text text-anchor="middle" x="746" y="-175.8" font-family="Times,serif" font-size="14.00">AuthService </text>
</g>
<!-- AuthModule&#45;&gt;AuthService  -->
<g id="edge5" class="edge">
<title>AuthModule&#45;&gt;AuthService </title>
<path fill="none" stroke="black" stroke-dasharray="5,2" d="M366.11,-122.11C366.11,-131.9 366.11,-142 366.11,-142 366.11,-142 746,-142 746,-142 746,-142 746,-151.89 746,-151.89"/>
<polygon fill="black" stroke="black" points="742.5,-151.89 746,-161.89 749.5,-151.89 742.5,-151.89"/>
</g>
<!-- PostsModule -->
<g id="node2" class="node">
<title>PostsModule</title>
<polygon fill="#8dd3c7" stroke="black" points="411.61,-198 408.61,-202 387.61,-202 384.61,-198 322.39,-198 322.39,-162 411.61,-162 411.61,-198"/>
<text text-anchor="middle" x="367" y="-175.8" font-family="Times,serif" font-size="14.00">PostsModule</text>
</g>
<!-- PostsModule&#45;&gt;AppModule -->
<g id="edge2" class="edge">
<title>PostsModule&#45;&gt;AppModule</title>
<path fill="none" stroke="black" d="M384.36,-198.11C384.36,-198.11 384.36,-216.99 384.36,-216.99"/>
<polygon fill="black" stroke="black" points="380.86,-216.99 384.36,-226.99 387.86,-216.99 380.86,-216.99"/>
</g>
<!-- UsersModule -->
<g id="node3" class="node">
<title>UsersModule</title>
<polygon fill="#8dd3c7" stroke="black" points="518.92,-122 515.92,-126 494.92,-126 491.92,-122 427.08,-122 427.08,-86 518.92,-86 518.92,-122"/>
<text text-anchor="middle" x="473" y="-99.8" font-family="Times,serif" font-size="14.00">UsersModule</text>
</g>
<!-- UsersModule&#45;&gt;PostsModule -->
<g id="edge7" class="edge">
<title>UsersModule&#45;&gt;PostsModule</title>
<path fill="none" stroke="black" d="M431.8,-122.03C431.8,-142.77 431.8,-174 431.8,-174 431.8,-174 421.65,-174 421.65,-174"/>
<polygon fill="black" stroke="black" points="421.65,-170.5 411.65,-174 421.65,-177.5 421.65,-170.5"/>
</g>
<!-- UsersModule&#45;&gt;AppModule -->
<g id="edge3" class="edge">
<title>UsersModule&#45;&gt;AppModule</title>
<path fill="none" stroke="black" d="M436.32,-122.14C436.32,-122.14 436.32,-216.93 436.32,-216.93"/>
<polygon fill="black" stroke="black" points="432.82,-216.92 436.32,-226.93 439.82,-216.93 432.82,-216.92"/>
</g>
<!-- UserService  -->
<g id="node9" class="node">
<title>UserService </title>
<polygon fill="#fb8072" stroke="black" points="1058.9,-198 971.1,-198 971.1,-162 1058.9,-162 1058.9,-198"/>
<text text-anchor="middle" x="1015" y="-175.8" font-family="Times,serif" font-size="14.00">UserService </text>
</g>
<!-- UsersModule&#45;&gt;UserService  -->
<g id="edge9" class="edge">
<title>UsersModule&#45;&gt;UserService </title>
<path fill="none" stroke="black" stroke-dasharray="5,2" d="M518.74,-98C649.41,-98 1015,-98 1015,-98 1015,-98 1015,-151.8 1015,-151.8"/>
<polygon fill="black" stroke="black" points="1011.5,-151.8 1015,-161.8 1018.5,-151.8 1011.5,-151.8"/>
</g>
<!-- AppService -->
<g id="node5" class="node">
<title>AppService</title>
<ellipse fill="#fdb462" stroke="black" cx="241" cy="-180" rx="56.74" ry="18"/>
<text text-anchor="middle" x="241" y="-175.8" font-family="Times,serif" font-size="14.00">AppService</text>
</g>
<!-- AppService&#45;&gt;AppModule -->
<g id="edge4" class="edge">
<title>AppService&#45;&gt;AppModule</title>
<path fill="none" stroke="black" d="M241,-198.11C241,-217.34 241,-245 241,-245 241,-245 347.07,-245 347.07,-245"/>
<polygon fill="black" stroke="black" points="347.07,-248.5 357.07,-245 347.07,-241.5 347.07,-248.5"/>
</g>
<!-- AuthService -->
<g id="node7" class="node">
<title>AuthService</title>
<ellipse fill="#fdb462" stroke="black" cx="618" cy="-180" rx="59.11" ry="18"/>
<text text-anchor="middle" x="618" y="-175.8" font-family="Times,serif" font-size="14.00">AuthService</text>
</g>
<!-- AuthService&#45;&gt;AuthModule -->
<g id="edge6" class="edge">
<title>AuthService&#45;&gt;AuthModule</title>
<path fill="none" stroke="black" d="M561.85,-186C503.94,-186 422.05,-186 422.05,-186 422.05,-186 422.05,-98 422.05,-98 422.05,-98 419.61,-98 419.61,-98"/>
<polygon fill="black" stroke="black" points="419.61,-94.5 409.61,-98 419.61,-101.5 419.61,-94.5"/>
</g>
<!-- PostsService -->
<g id="node8" class="node">
<title>PostsService</title>
<ellipse fill="#fdb462" stroke="black" cx="84" cy="-104" rx="60.27" ry="18"/>
<text text-anchor="middle" x="84" y="-99.8" font-family="Times,serif" font-size="14.00">PostsService</text>
</g>
<!-- PostsService&#45;&gt;PostsModule -->
<g id="edge8" class="edge">
<title>PostsService&#45;&gt;PostsModule</title>
<path fill="none" stroke="black" d="M144.54,-104C211.46,-104 309.92,-104 309.92,-104 309.92,-104 309.92,-180 309.92,-180 309.92,-180 312.31,-180 312.31,-180"/>
<polygon fill="black" stroke="black" points="312.31,-183.5 322.31,-180 312.31,-176.5 312.31,-183.5"/>
</g>
<!-- UserService -->
<g id="node10" class="node">
<title>UserService</title>
<ellipse fill="#fdb462" stroke="black" cx="889" cy="-180" rx="58.44" ry="18"/>
<text text-anchor="middle" x="889" y="-175.8" font-family="Times,serif" font-size="14.00">UserService</text>
</g>
<!-- UserService&#45;&gt;UsersModule -->
<g id="edge10" class="edge">
<title>UserService&#45;&gt;UsersModule</title>
<path fill="none" stroke="black" d="M889,-161.97C889,-141.23 889,-110 889,-110 889,-110 529.11,-110 529.11,-110"/>
<polygon fill="black" stroke="black" points="529.11,-106.5 519.11,-110 529.11,-113.5 529.11,-106.5"/>
</g>
</g>
</svg>
